<svg viewBox="328 218 304 272" xmlns="http://www.w3.org/2000/svg">
  <path fill="#00c785" d="m338.19815 290.81628l221.14175 0l0 187.34644l-221.14175 0z"/>
  <path fill="#009f6a" d="m559.3399 290.81628l62.44879 -62.448837l0 187.34645l-62.44879 62.448822z"/>
  <path fill="#33d29d" d="m338.19815 290.81628l62.448822 -62.448837l221.14172 0l-62.44879 62.448837z"/>
  <path fill="#ffffff" d="m388.82053 408.25934l0 -46.515625l15.015625 0q7.9375 0 11.90625 2.78125q3.96875 2.765625 3.96875 8.390625q0 1.75 -0.40625 3.40625q-0.40625 1.65625 -1.265625 3.046875q-0.859375 1.375 -2.140625 2.453125q-1.28125 1.0625 -3.015625 1.671875q1.734375 0.28125 3.3125 1.125q1.59375 0.828125 2.78125 2.171875q1.203125 1.328125 1.890625 3.140625q0.6875 1.8125 0.6875 4.0625q0 7.109375 -4.765625 10.6875q-4.765625 3.578125 -13.765625 3.578125l-14.203125 0zm21.78125 -33.8125q0 -1.3125 -0.4375 -2.375q-0.421875 -1.078125 -1.375 -1.828125q-0.9375 -0.75 -2.421875 -1.15625q-1.46875 -0.40625 -3.5625 -0.40625l-5.296875 0l0 12.3125l5.296875 0q2.140625 0 3.609375 -0.515625q1.484375 -0.515625 2.421875 -1.421875q0.9375 -0.90625 1.34375 -2.078125q0.421875 -1.171875 0.421875 -2.53125zm-6.984375 26.65625q2.109375 0 3.6875 -0.53125q1.59375 -0.53125 2.65625 -1.46875q1.0625 -0.953125 1.609375 -2.234375q0.5625 -1.28125 0.5625 -2.734375q0 -3.03125 -2.265625 -4.734375q-2.25 -1.71875 -6.921875 -1.71875l-5.4375 0l0 13.421875l6.109375 0zm46.919373 -38.90625q0 1.1875 -0.4375 2.21875q-0.421875 1.03125 -1.1875 1.796875q-0.765625 0.765625 -1.796875 1.21875q-1.03125 0.4375 -2.234375 0.4375q-1.21875 0 -2.265625 -0.4375q-1.046875 -0.453125 -1.8125 -1.21875q-0.765625 -0.765625 -1.203125 -1.796875q-0.421875 -1.03125 -0.421875 -2.21875q0 -1.171875 0.421875 -2.203125q0.4375 -1.03125 1.203125 -1.8125q0.765625 -0.78125 1.8125 -1.21875q1.046875 -0.453125 2.265625 -0.453125q1.203125 0 2.234375 0.453125q1.03125 0.4375 1.796875 1.21875q0.765625 0.78125 1.1875 1.8125q0.4375 1.03125 0.4375 2.203125zm-9.609375 16.671875l-10.21875 0l0 -6.765625l19.109375 0l0 29.390625l10.4375 0l0 6.765625l-30.796875 0l0 -6.765625l11.46875 0l0 -22.625zm28.044342 29.390625l0 -46.515625l15.015625 0q7.9375 0 11.90625 2.78125q3.96875 2.765625 3.96875 8.390625q0 1.75 -0.40625 3.40625q-0.40625 1.65625 -1.265625 3.046875q-0.859375 1.375 -2.140625 2.453125q-1.28125 1.0625 -3.015625 1.671875q1.734375 0.28125 3.3125 1.125q1.59375 0.828125 2.78125 2.171875q1.203125 1.328125 1.890625 3.140625q0.6875 1.8125 0.6875 4.0625q0 7.109375 -4.765625 10.6875q-4.765625 3.578125 -13.765625 3.578125l-14.203125 0zm21.78125 -33.8125q0 -1.3125 -0.4375 -2.375q-0.421875 -1.078125 -1.375 -1.828125q-0.9375 -0.75 -2.421875 -1.15625q-1.46875 -0.40625 -3.5625 -0.40625l-5.296875 0l0 12.3125l5.296875 0q2.140625 0 3.609375 -0.515625q1.484375 -0.515625 2.421875 -1.421875q0.9375 -0.90625 1.34375 -2.078125q0.421875 -1.171875 0.421875 -2.53125zm-6.984375 26.65625q2.109375 0 3.6875 -0.53125q1.59375 -0.53125 2.65625 -1.46875q1.0625 -0.953125 1.609375 -2.234375q0.5625 -1.28125 0.5625 -2.734375q0 -3.03125 -2.265625 -4.734375q-2.25 -1.71875 -6.921875 -1.71875l-5.4375 0l0 13.421875l6.109375 0z"/>
</svg>
